<svg xmlns="http://www.w3.org/2000/svg" width="230" height="230">
 <defs>
  <filter id="dango_blur" x="-50%" y="-50%" width="200%" height="200%">
   <feGaussianBlur stdDeviation="12"/>
  </filter>
 </defs>
 
 <g display="inline">
  <title>dangoco</title>
  <g id="dango_body" stroke-width="0">
   <path d="m23.680947,110.756659c0,-41.3777 41.88553,-74.46812 105.95749,-68.51066c32.03598,2.97873 50.54662,15.40027 62.43125,29.21743c11.88462,13.81715 15.01558,30.30651 14.16451,48.65493c-0.42553,9.17421 -1.10968,26.30187 -14.11132,41.13598c-13.00165,14.83412 -34.06548,27.37469 -63.3355,27.37469c-29.27002,0 -54.48279,-11.4641 -73.65467,-25.97274c-19.17188,-14.50864 -31.45176,-31.21078 -31.45176,-51.89963z" fill="#000"/>
   <path d="m23.634697,110.577619c0,-41.3777 41.88553,-74.46812 105.95749,-68.51066c32.03598,2.97873 50.54662,15.40027 62.43125,29.21743c11.88462,13.81715 15.01558,30.30651 14.16451,48.65493c-0.42553,9.17421 -1.10968,26.30187 -14.11132,41.13598c-13.00165,14.83412 -34.06548,27.37469 -63.3355,27.37469c-29.27002,0 -54.48279,-11.4641 -73.65467,-25.97274c-19.17188,-14.50864 -31.45176,-31.21078 -31.45176,-51.89963z" fill="#fff" filter="url(#dango_blur)"/>
   <g id="dango_eyes" stroke="#000" fill="none" stroke-linejoin="round" stroke-linecap="round" stroke-width="10">
    <path d="m87.152037,75.191889c-3.40965,-0.18651 -5.86458,2.68861 -7.57052,6.8292c-1.70594,4.14059 -2.25302,7.88341 -2.60818,12.40234c-0.35516,4.51893 0.28449,8.50552 2.92082,9.54499"/>
    <path d="m161.996747,86.212909c2.20751,8.83002 0.4415,15.01104 -0.883,19.2053c-1.3245,4.19426 -7.94702,15.45254 -8.0795,15.23179"/>
   </g>
  </g>
 </g>
</svg>